<?xml version="1.0" standalone="no"?>
<!DOCTYPE svg PUBLIC "-//W3C//DTD SVG 1.1//EN" "http://www.w3.org/Graphics/SVG/1.1/DTD/svg11.dtd">

<svg style="stroke-width:0.7pt; stroke-linejoin: round; stroke:#000; fill:#f3f3f0;" xmlns="http://www.w3.org/2000/svg" font-family="Helvetica, Arial, FreeSans, Sans, sans, sans-serif" height="501px" viewBox="0 0 436 501" width="436px" version="1.1" xmlns:xlink="http://www.w3.org/1999/xlink" enable-background="new 0 0 436 501">

<defs>

<style type="text/css">path { fill-rule: evenodd; }
#context path { fill: #eee; stroke: #bbb; } </style>

</defs>

<metadata>

<views>

<view padding="0" h="501" w="436.745472018">

<proj lon0="-4.3" id="laea" lat0="54.275" />

<bbox y="945.64" h="107.1" w="93.55" x="953.22" />

<llbbox lon1="1.6" lon0="-10.2" lat1="58.55" lat0="50.0" />

</view>

</views>

</metadata>

<g id="GBR">

<path d="M396.8,404.4L401.6,403.8L401.3,403.5L398.9,402.7L396.4,402.1L395.2,404.6Z " />

<path d="M291.9,241.0L295.0,240.7L297.6,241.6L300.2,240.0L302.5,238.7L304.6,236.9L307.3,238.1L310.8,240.5L313.3,241.8L313.0,238.8L315.6,238.9L317.7,240.4L320.2,238.9L322.5,237.8L326.0,237.6L329.3,237.7L332.5,237.8L334.1,235.7L335.7,234.1L328.5,232.1L325.4,230.9L322.7,231.6L322.3,228.9L320.5,225.7L318.7,223.9L316.2,216.8L315.5,214.3L315.3,211.6L313.6,209.6L312.6,207.2L311.3,204.9L310.5,202.0L309.9,199.1L309.5,196.6L308.0,194.5L308.2,191.9L307.2,189.5L307.0,186.5L306.8,182.0L305.5,179.2L305.1,176.7L302.8,174.8L300.5,173.2L297.7,172.3L292.4,164.9L291.9,164.0L290.0,166.3L288.3,168.2L285.3,172.9L282.6,173.7L283.5,176.2L284.8,179.0L286.2,181.3L287.2,183.6L285.8,186.1L282.8,187.8L281.1,190.3L278.4,190.0L275.6,192.8L273.8,195.0L273.4,197.6L271.4,200.0L272.5,202.7L274.7,205.0L277.4,205.8L278.3,208.5L275.7,210.2L274.7,212.8L276.5,215.3L274.8,217.6L275.6,220.3L278.0,222.0L280.3,220.3L282.6,221.6L283.9,226.3L283.4,228.9L285.5,230.3L285.1,233.4L288.1,236.3L289.9,240.1L290.1,241.8L290.6,242.1Z " data-region="england-north-east" />

<path d="M191.7,186.1L192.6,183.4L191.5,180.5L191.2,177.4L190.9,173.7L189.8,171.4L187.2,169.8L184.2,171.7L182.9,174.1L183.0,177.4L184.4,179.7L184.3,182.8L187.0,185.6L190.2,186.4Z M154.6,177.1L156.2,174.7L158.9,174.5L161.2,172.5L162.3,169.6L161.8,166.8L160.2,164.8L159.8,159.8L159.6,157.0L157.0,158.0L155.0,159.8L153.2,162.0L152.9,159.4L150.3,160.9L148.8,162.9L148.9,165.8L147.4,168.0L146.9,171.3L149.7,169.7L152.1,166.1L154.6,165.6L153.0,168.5L154.7,170.7L153.6,173.7L153.0,177.1L153.8,177.4Z M195.4,169.5L195.4,166.9L194.8,164.3L193.4,162.2L191.4,159.3L190.0,161.8L191.7,165.4L194.1,168.3L195.2,169.9Z M199.3,231.7L198.6,228.5L197.7,225.7L196.7,223.1L198.3,220.1L201.1,219.2L203.1,221.6L208.5,224.5L211.5,228.5L214.2,229.5L216.8,228.7L216.9,225.6L216.8,222.6L214.5,220.4L214.5,217.7L216.5,219.3L219.3,220.8L221.7,219.3L222.6,223.5L225.5,224.4L225.7,221.7L226.5,224.1L229.5,224.7L232.1,222.7L233.5,220.1L236.9,219.6L241.6,218.5L242.5,215.0L242.4,211.7L245.2,212.0L256.8,213.1L259.6,212.3L260.2,208.5L262.7,208.8L264.7,206.5L266.9,203.3L269.4,202.0L271.4,200.0L273.4,197.6L273.8,195.0L275.6,192.8L278.4,190.0L281.1,190.3L282.8,187.8L285.8,186.1L287.2,183.6L286.2,181.3L284.8,179.0L283.5,176.2L282.6,173.7L285.3,172.9L288.3,168.2L290.0,166.3L291.9,164.0L290.0,160.4L288.2,158.4L282.5,156.9L279.0,154.5L276.5,153.2L273.6,153.2L272.4,150.4L266.4,149.8L264.3,151.8L262.9,154.7L259.7,156.5L257.1,156.5L250.4,155.1L247.1,154.5L243.9,153.6L240.9,153.0L238.3,152.5L235.7,149.8L233.2,147.9L236.1,149.8L238.6,151.1L241.4,151.0L246.6,152.5L249.1,152.3L251.5,150.9L254.4,150.4L255.6,147.3L258.9,144.1L260.8,142.3L263.4,141.6L266.2,142.7L268.9,141.1L271.7,139.1L273.4,137.1L270.8,134.9L267.2,134.4L265.0,132.5L266.1,130.0L263.9,127.6L261.3,128.8L255.0,132.2L252.4,133.3L249.9,133.4L255.5,129.2L257.8,127.8L265.4,126.5L268.0,126.7L270.4,123.9L274.4,120.0L275.8,117.7L276.0,114.9L277.0,111.0L278.5,108.9L280.7,107.1L282.2,104.5L283.9,101.9L284.5,99.4L284.6,96.5L288.2,89.7L287.8,86.6L288.6,82.4L290.4,77.0L294.3,72.6L296.0,69.0L296.8,66.6L295.7,64.3L294.8,61.0L291.8,57.1L289.4,55.7L285.7,55.0L283.4,56.6L280.6,55.8L278.0,56.5L274.3,56.7L271.5,56.8L268.8,55.9L266.3,56.3L263.8,55.7L260.9,55.8L258.5,57.4L255.9,57.8L251.9,56.4L249.6,54.9L245.7,54.8L243.2,55.5L242.3,58.1L239.6,58.1L235.2,60.5L232.6,62.5L228.7,62.5L225.9,62.9L224.6,65.7L222.3,68.0L221.2,65.6L223.0,63.4L225.0,60.7L226.8,58.9L224.0,58.8L221.6,57.8L218.9,59.7L216.8,61.7L214.6,63.4L217.2,59.5L219.1,57.5L221.6,57.0L225.2,54.6L226.9,56.5L229.2,54.9L234.0,48.8L231.3,49.6L229.0,48.4L226.3,49.5L223.3,47.9L220.5,47.3L217.2,46.8L215.6,44.4L217.7,46.5L220.9,46.3L223.5,47.5L225.9,46.3L227.9,44.4L225.6,42.7L227.8,41.4L230.0,39.8L232.2,38.4L233.3,36.1L235.6,34.9L242.2,29.3L244.0,26.9L246.1,23.7L249.8,22.1L252.1,20.0L253.7,17.6L254.9,15.0L255.8,12.5L253.6,10.3L254.9,7.1L256.0,4.2L255.7,1.5L252.7,2.0L250.0,1.0L247.1,1.7L246.4,4.4L243.9,3.7L241.4,4.4L237.5,3.3L234.4,5.5L230.5,6.6L227.9,6.2L225.3,6.6L222.6,6.8L220.2,8.3L217.1,8.1L214.6,10.4L213.0,13.0L213.9,9.8L213.1,6.6L210.6,5.8L209.0,8.9L207.1,11.1L205.1,13.2L205.9,10.0L207.6,7.6L205.5,5.9L203.6,7.9L202.8,5.3L197.8,2.9L196.9,5.7L196.1,8.2L194.2,9.9L197.4,13.9L194.1,13.9L195.9,16.0L193.2,15.2L192.3,18.0L193.1,21.2L194.7,23.4L197.5,23.4L198.9,25.6L196.6,24.4L193.8,23.6L191.3,24.0L188.8,24.9L185.8,23.7L186.6,27.0L188.1,29.2L188.7,32.0L187.9,34.9L185.2,33.6L184.5,36.2L186.2,38.1L188.1,40.0L190.8,41.2L194.0,46.4L190.9,44.8L188.2,44.1L185.8,42.1L187.2,44.7L189.4,46.6L186.1,45.1L183.6,44.7L183.0,47.2L180.0,45.2L178.3,42.8L177.2,45.1L178.6,47.5L179.0,51.1L176.5,49.8L176.3,46.7L173.2,46.2L172.1,48.9L172.1,52.7L174.8,54.0L175.6,56.4L172.5,56.1L172.0,59.1L174.2,61.7L176.4,64.9L180.0,64.3L176.6,65.6L174.2,64.8L172.0,62.7L170.5,65.1L169.8,67.7L170.3,70.2L171.5,72.8L171.6,75.7L174.7,75.5L176.9,72.7L178.5,75.2L181.4,72.8L177.6,76.5L175.1,76.8L174.2,79.8L176.8,79.6L180.4,79.3L182.9,77.9L181.0,80.3L182.6,82.4L179.7,80.7L177.3,81.7L176.7,84.5L175.3,87.1L178.3,88.5L180.8,89.8L183.4,89.4L179.1,90.5L176.4,88.7L173.9,89.4L172.2,91.7L173.6,93.9L175.5,95.9L178.1,96.4L175.8,97.3L173.9,95.1L171.0,95.5L169.7,98.7L169.4,101.2L171.9,101.9L173.0,104.5L175.2,103.3L173.3,105.0L170.0,105.4L172.5,108.5L169.9,108.8L167.1,109.2L164.3,109.3L159.1,109.9L157.3,111.9L158.8,114.1L161.6,113.3L166.1,113.9L169.1,114.4L172.6,112.5L175.5,113.9L179.1,113.7L175.8,114.5L173.1,113.2L168.9,115.5L165.2,115.9L169.1,121.9L172.2,120.7L172.7,123.5L174.8,125.1L177.2,123.3L179.3,120.8L180.9,118.5L182.8,116.6L184.9,115.0L186.8,113.1L188.8,111.1L190.4,109.0L192.6,106.9L189.3,111.2L191.2,113.9L196.4,112.8L193.3,113.7L190.1,114.3L187.2,115.0L185.1,118.6L183.8,121.2L186.3,122.1L184.1,124.0L181.3,126.4L184.1,127.4L188.4,127.5L190.8,125.7L192.7,123.7L194.1,121.4L192.4,124.7L190.4,127.5L185.9,127.7L182.7,127.9L180.9,130.0L178.9,133.0L181.8,132.7L179.3,133.8L177.4,137.0L179.7,138.2L178.1,140.5L177.2,143.3L178.2,145.8L178.9,148.4L174.7,152.3L173.4,154.6L173.1,157.3L174.1,154.9L175.8,152.3L173.4,158.5L176.7,157.8L175.4,160.5L174.2,163.0L174.8,165.9L177.9,166.1L181.1,162.6L179.4,165.8L177.4,167.3L175.9,169.4L173.6,172.3L173.1,176.3L172.1,178.6L172.1,181.6L172.2,184.1L170.6,187.4L169.5,190.6L170.2,193.7L172.8,193.4L176.0,193.2L178.3,190.6L177.8,187.8L178.5,183.5L179.2,181.0L180.1,178.2L180.0,174.9L180.6,172.2L181.7,169.8L183.7,167.8L185.2,164.8L182.6,161.5L182.4,158.6L181.2,156.3L181.5,153.2L184.0,153.3L184.8,150.9L188.6,146.4L192.5,143.9L193.6,141.5L196.3,140.0L198.6,138.0L196.8,140.3L194.1,142.3L192.9,144.9L189.4,147.0L185.8,153.1L185.4,155.7L184.9,158.8L185.9,161.9L188.7,163.6L188.0,160.0L189.2,157.6L192.4,159.4L191.9,154.7L193.7,157.5L194.4,160.6L197.1,160.3L198.2,157.6L198.1,155.1L199.1,152.0L199.6,149.4L198.9,145.4L200.7,147.5L203.0,143.0L201.5,146.9L200.2,150.2L200.2,152.8L202.2,155.0L201.1,151.1L202.8,153.0L206.4,156.2L209.0,157.4L212.5,158.2L207.8,158.1L205.3,157.6L202.7,156.5L199.9,157.6L199.3,160.1L199.6,164.3L200.2,168.0L198.3,170.7L199.9,172.6L201.8,174.3L204.7,175.9L206.3,177.9L207.0,180.7L208.0,183.0L206.9,185.8L203.7,187.7L202.9,190.3L201.0,192.5L200.8,195.2L199.9,197.6L197.1,201.8L195.1,203.3L194.5,206.3L193.6,209.9L194.5,212.8L195.6,215.2L193.1,214.9L193.0,212.2L191.8,209.9L189.4,211.9L189.4,216.3L191.0,220.1L194.1,223.9L195.4,226.2L196.9,228.6L196.9,231.4L199.8,232.6Z M157.5,151.2L158.5,148.6L159.5,146.1L157.3,147.3L155.9,150.0L156.6,151.5Z M164.7,164.7L165.3,161.6L167.2,160.0L170.8,152.4L172.2,149.2L173.8,147.2L173.0,144.8L170.4,147.1L167.9,149.5L165.2,151.4L163.8,154.2L166.6,154.8L163.7,156.2L161.7,157.8L161.0,162.8L162.6,165.1L163.8,165.2Z M175.9,141.0L176.5,138.5L174.7,140.9L175.6,142.8Z M155.9,137.9L159.4,137.0L162.0,136.7L165.5,134.6L168.3,132.9L169.0,135.5L173.1,133.3L172.6,130.5L175.2,130.6L175.5,127.9L173.6,125.7L171.2,124.0L166.0,123.3L164.3,119.0L162.7,116.8L159.9,115.8L157.5,118.0L154.3,118.3L153.8,121.4L158.3,123.2L160.0,125.7L163.9,124.4L161.8,127.6L159.3,129.9L157.9,132.0L160.9,132.3L163.4,131.1L161.5,133.1L158.7,134.0L156.2,134.1L153.5,133.3L153.1,136.5L155.2,138.0L155.6,138.0Z M136.3,127.0L137.5,124.7L140.9,122.9L138.5,121.7L135.9,122.8L133.0,123.5L133.7,126.0L135.7,127.0Z M143.2,120.1L146.7,118.5L148.6,116.8L150.2,114.0L147.0,114.7L144.1,118.2L142.8,120.4L143.0,120.7Z M119.2,97.6L120.9,95.6L120.3,93.0L117.4,93.7L116.3,96.4L118.8,97.7Z M155.5,98.9L157.5,95.2L155.0,92.3L150.9,95.3L152.9,96.9L154.3,99.0Z M166.6,94.0L169.6,90.6L171.9,88.2L173.9,86.2L175.7,84.4L176.5,81.0L173.6,80.2L171.0,81.3L168.4,81.7L166.2,80.4L163.1,79.9L160.8,78.3L161.9,75.9L162.0,73.0L161.6,69.3L161.4,65.9L161.2,61.9L158.9,58.9L157.1,56.3L154.8,57.5L153.4,59.5L154.5,62.7L155.4,66.4L156.2,69.1L153.9,65.9L151.1,65.6L149.0,63.9L147.7,61.5L145.7,63.6L148.1,65.5L146.6,67.4L144.0,65.9L143.0,68.5L143.1,71.3L144.1,74.4L147.6,76.0L148.0,73.2L150.5,72.6L151.7,74.9L155.5,77.8L152.7,76.4L150.7,78.0L152.8,81.6L154.1,83.9L156.8,84.1L155.4,86.4L159.9,85.4L162.0,87.1L164.3,85.5L164.1,82.7L165.6,85.0L168.5,85.9L166.5,87.8L165.4,90.1L164.2,93.3L165.0,94.3Z M127.3,88.1L125.5,86.1L126.1,83.1L123.4,80.9L126.4,81.0L127.6,78.5L127.0,75.9L124.7,74.8L122.9,73.0L125.6,74.6L123.8,71.1L121.4,72.1L122.1,74.8L122.2,77.3L120.9,79.9L121.4,82.4L121.9,87.0L126.6,88.9Z M164.4,77.0L165.4,74.1L165.7,69.9L166.4,67.4L164.4,69.4L163.3,74.5L163.9,77.1Z M128.4,70.7L126.7,68.8L125.7,66.4L122.9,66.9L122.5,69.5L124.9,71.1L125.7,71.3Z M128.2,65.3L130.8,64.2L127.6,63.4L130.5,62.5L130.1,59.7L132.9,58.8L130.9,57.0L128.9,55.3L126.8,56.6L124.0,57.1L121.3,56.7L119.1,59.3L120.6,61.8L124.2,62.7L125.3,65.0L127.7,65.7Z M133.8,44.3L136.0,42.4L133.4,43.5L133.4,44.3Z M136.9,52.3L139.5,50.4L140.1,47.8L143.2,47.8L142.7,45.2L146.2,44.8L145.2,42.4L144.2,39.9L143.3,37.6L145.5,35.5L148.6,34.6L145.4,36.1L145.2,39.2L146.1,41.7L148.8,42.7L151.5,41.3L152.2,38.8L149.8,37.4L153.6,37.9L155.9,36.0L155.0,32.9L149.0,33.4L151.1,31.9L153.3,30.8L155.4,29.1L154.7,26.1L157.9,26.8L160.4,27.3L161.8,25.1L158.7,25.8L155.8,24.5L158.2,22.5L160.0,19.7L162.0,18.0L161.3,14.8L161.4,11.8L160.0,8.9L156.8,11.6L151.3,15.6L148.3,17.8L145.8,18.6L142.2,21.3L143.0,23.9L144.3,26.1L141.8,26.5L140.0,28.5L140.6,31.0L139.5,28.6L138.6,26.3L136.1,23.8L135.2,26.2L133.5,28.0L132.7,30.6L133.9,33.8L138.2,34.6L135.3,35.9L133.1,37.5L134.9,39.7L137.4,40.1L140.8,41.4L140.4,42.8L137.0,43.6L135.8,45.9L133.2,48.2L134.3,50.6L136.1,52.8L136.3,52.9Z M142.8,25.2L140.9,23.1L140.4,25.6L142.9,25.7Z " data-region="scotland" />

<path d="M187.1,498.2L189.9,496.4L189.9,493.7L189.6,491.2L190.7,488.8L192.5,490.6L194.0,487.9L196.8,486.6L200.0,485.7L200.7,483.3L201.4,480.4L203.7,479.4L211.2,480.1L215.3,477.9L220.1,478.5L222.3,480.5L221.3,478.0L218.7,476.2L221.3,475.7L221.9,473.2L222.6,476.0L225.5,477.7L226.2,480.2L228.2,482.0L230.5,480.5L233.7,482.8L235.8,485.5L238.3,486.2L241.9,486.2L242.4,483.1L243.3,480.4L245.1,478.4L247.5,476.8L245.6,474.0L248.1,472.4L247.4,469.6L248.3,466.2L250.0,463.7L249.2,461.0L250.9,463.1L255.0,462.1L257.8,459.6L260.8,459.2L263.1,457.8L265.8,457.9L269.8,456.3L276.9,458.5L284.7,464.2L285.7,467.8L286.6,465.3L286.0,462.0L288.5,460.8L296.6,462.2L299.3,463.4L302.9,463.3L304.7,460.5L302.8,458.6L300.8,456.7L304.0,456.6L306.6,456.0L309.5,455.8L312.5,455.0L314.0,454.7L311.8,452.8L309.3,452.4L309.3,449.6L307.6,446.2L308.8,444.0L306.1,444.4L303.4,440.8L306.3,439.7L310.1,440.7L312.6,441.3L315.8,442.0L315.5,439.4L315.2,436.6L315.1,433.5L314.0,431.1L312.6,428.0L314.6,426.3L317.8,425.5L318.3,422.2L319.5,419.8L317.7,417.9L316.9,415.5L315.9,411.6L313.2,407.1L312.8,403.5L311.7,400.8L311.7,397.8L310.5,395.3L311.6,390.7L312.8,388.4L313.6,385.7L312.1,383.2L313.5,380.7L310.0,378.6L308.1,376.4L306.2,378.6L305.9,381.4L303.1,380.8L298.7,382.8L296.0,382.4L293.9,380.6L294.1,383.2L291.6,385.1L288.9,384.6L287.7,382.2L285.2,383.8L282.8,385.6L284.6,388.0L282.1,390.1L279.5,391.7L277.1,393.6L277.1,393.6L276.0,396.1L276.1,398.8L276.6,401.4L276.4,404.2L276.7,405.4L279.0,402.6L281.7,400.1L283.1,398.0L285.9,396.7L283.7,399.0L281.3,402.1L280.0,404.2L276.4,410.3L274.6,412.4L272.1,413.2L269.2,417.1L266.7,418.2L265.8,420.6L264.7,423.2L264.9,426.5L264.4,430.1L261.7,429.4L258.1,429.5L255.5,430.4L251.4,430.6L245.1,428.3L242.2,428.4L239.5,427.8L236.8,427.3L232.3,428.1L223.7,429.4L221.0,430.5L220.0,432.8L221.5,436.6L218.3,441.1L214.9,441.5L210.2,440.7L209.8,444.5L209.1,447.4L209.3,452.5L206.8,455.6L205.4,458.1L202.8,460.3L201.4,462.9L199.3,465.1L196.6,465.2L196.2,467.8L198.4,469.4L195.7,468.6L192.9,467.4L191.7,469.7L191.3,473.1L188.3,475.6L187.3,478.4L181.0,484.2L178.4,484.9L176.5,487.5L173.8,486.0L171.1,487.3L168.7,488.7L166.6,490.4L166.9,493.0L166.5,495.5L169.6,495.9L172.4,494.6L172.6,492.1L175.0,491.2L178.4,492.5L181.3,494.1L182.9,496.6L183.4,499.0L186.6,499.0Z " data-region="england-south-west" />

<path d="M316.0,307.0L318.5,306.0L321.8,306.1L325.7,307.3L326.7,304.7L327.5,302.3L329.2,300.3L332.1,298.9L334.0,295.8L338.3,297.6L339.9,295.5L344.3,294.2L344.5,297.0L348.1,296.5L349.7,294.0L352.1,293.2L349.0,292.3L350.9,290.4L354.0,290.7L355.0,288.1L358.0,290.0L359.0,293.6L360.1,296.2L362.1,297.7L363.3,292.9L365.8,292.1L366.0,291.9L363.5,289.4L360.1,287.5L355.8,283.1L348.1,283.1L344.4,282.5L341.6,283.0L344.9,281.4L349.3,281.9L354.1,280.2L356.9,281.2L360.4,285.2L363.4,286.2L366.0,284.9L368.3,286.1L368.9,289.5L370.0,286.7L362.8,276.1L358.8,270.7L357.0,265.3L356.8,261.5L360.7,258.4L356.3,256.3L354.1,254.8L352.7,252.3L350.3,251.1L348.9,248.7L348.0,245.4L346.8,243.2L344.7,241.5L343.2,238.3L335.7,234.1L334.1,235.7L332.5,237.8L329.3,237.7L326.0,237.6L322.5,237.8L320.2,238.9L317.7,240.4L315.6,238.9L313.0,238.8L313.3,241.8L310.8,240.5L307.3,238.1L304.6,236.9L302.5,238.7L300.2,240.0L297.6,241.6L295.0,240.7L291.9,241.0L290.6,242.1L290.1,241.8L287.1,242.3L285.9,245.4L283.8,248.0L285.3,251.3L285.4,253.8L282.8,254.3L280.4,255.8L278.6,258.4L277.3,261.0L280.2,263.7L281.6,266.0L284.2,266.0L284.8,268.7L288.4,269.0L290.3,271.7L292.7,272.8L294.1,275.8L293.2,278.8L292.4,282.0L291.6,284.9L293.3,286.8L295.6,288.1L297.6,291.1L300.5,294.5L303.3,295.4L304.4,298.1L306.2,300.7L307.8,302.6L311.3,305.4L313.5,308.0Z " data-region="england-yorkshire-and-the-humber" />

<path d="M385.6,410.3L386.1,410.0L388.3,407.8L390.9,406.0L393.4,405.7L395.2,404.6L396.4,402.1L398.9,402.7L401.3,403.5L401.6,403.8L404.9,400.9L405.0,398.1L405.5,395.6L405.1,393.0L401.8,393.6L398.6,395.3L396.3,393.9L398.7,392.6L401.5,392.6L402.7,390.2L405.3,387.8L408.1,389.5L411.6,389.2L414.4,387.3L416.3,385.2L413.9,383.8L416.0,380.4L409.4,379.9L411.8,378.5L414.4,378.8L412.7,376.5L415.2,376.7L417.8,379.6L420.8,375.8L422.1,373.0L426.0,370.8L426.5,368.1L427.0,365.0L426.8,361.3L427.5,358.7L429.6,352.3L430.2,348.1L429.7,344.6L429.3,341.2L428.6,337.5L426.9,333.2L424.9,330.8L415.7,324.9L411.4,323.0L400.5,321.3L397.4,321.9L393.1,321.8L390.1,321.6L386.9,322.5L384.1,324.8L383.3,327.2L382.8,330.2L381.0,333.2L377.7,332.6L377.4,332.6L377.5,335.4L375.0,337.6L371.5,338.6L370.2,340.8L366.5,341.8L363.5,343.1L359.2,342.8L354.3,343.7L351.2,343.9L352.0,347.8L354.8,349.4L356.7,352.0L355.7,356.6L352.3,359.4L353.2,361.8L351.1,364.2L348.9,365.3L347.5,368.3L346.8,369.7L347.8,372.3L350.0,375.0L347.7,377.5L348.1,380.5L347.4,383.7L346.5,386.4L348.8,387.8L351.1,388.9L350.6,392.0L348.0,391.6L346.2,389.5L347.1,392.5L348.9,395.1L351.4,396.0L352.5,399.2L353.1,402.0L354.3,403.9L356.4,402.4L360.3,401.1L362.9,399.0L365.5,399.0L371.2,398.0L372.5,400.2L374.9,402.2L378.4,400.9L381.6,402.2L383.4,404.1L381.9,406.6L380.1,408.5L380.3,409.3L383.3,409.4L385.2,410.4Z " data-region="england-east" />

<path d="M159.6,266.2L162.6,263.9L164.6,262.4L165.6,259.2L165.7,255.9L168.7,254.4L172.1,254.5L175.4,252.8L176.8,249.9L175.5,246.6L172.5,247.9L174.0,243.3L173.5,240.8L172.3,238.3L171.6,235.8L175.8,238.3L176.8,242.4L175.6,244.9L176.9,248.0L179.2,246.6L179.6,243.6L180.6,240.9L179.2,238.3L178.9,235.5L177.4,232.3L176.3,230.0L172.0,230.2L169.5,229.8L167.2,231.1L165.5,233.4L165.5,229.8L167.9,227.7L170.9,226.7L172.2,224.3L171.9,221.2L169.3,219.0L170.9,222.3L168.3,219.8L167.5,217.2L166.1,214.8L164.6,212.6L163.3,209.4L161.9,207.2L161.1,204.4L161.3,201.2L159.8,199.2L157.4,198.0L154.7,198.7L151.1,196.6L148.2,196.9L145.6,196.6L141.6,198.3L137.8,199.9L135.0,200.0L131.5,198.7L130.5,202.1L129.0,205.0L127.3,207.3L124.5,206.9L121.5,206.7L120.4,206.1L120.3,206.2L117.7,207.0L117.0,207.7L116.1,209.6L115.8,209.7L115.5,212.5L115.4,212.5L114.5,213.1L114.4,215.9L113.4,218.1L110.9,221.0L110.6,223.6L110.7,223.9L107.2,223.6L104.2,225.6L101.1,224.1L97.8,225.9L99.0,228.3L101.4,229.4L104.0,230.7L104.9,231.6L100.0,235.0L97.4,235.3L94.9,234.6L94.2,235.3L94.2,235.3L93.5,236.3L93.0,237.1L89.8,238.5L89.0,238.9L90.5,241.7L92.6,244.7L95.0,247.0L97.8,249.1L98.4,253.0L101.3,254.7L103.9,254.8L106.2,256.7L110.5,259.4L113.5,258.4L113.1,258.8L116.4,260.3L116.7,260.3L117.5,257.4L117.6,257.4L117.6,257.5L117.7,257.6L117.5,259.9L119.2,257.4L119.0,256.9L118.9,256.8L121.7,254.7L121.7,251.7L121.6,251.6L121.9,250.8L121.3,250.4L121.1,249.6L121.1,249.6L123.6,247.0L125.4,244.5L127.5,243.6L127.5,243.6L128.6,244.2L129.1,244.7L130.6,246.0L131.1,247.4L131.7,247.6L132.6,250.7L131.7,251.5L132.3,251.9L133.1,252.5L133.1,252.5L134.1,255.1L136.0,256.9L138.3,256.6L139.8,259.1L138.9,261.8L138.3,263.8L138.6,264.0L139.7,265.3L140.0,265.5L140.2,265.6L140.7,265.0L144.9,264.0L147.5,264.5L148.5,264.2L149.1,261.7L149.1,261.7L152.0,262.5L152.0,262.5L154.8,262.9L158.1,265.0L158.3,266.3Z M156.5,195.2L155.0,192.8L156.4,195.2L156.3,195.6Z " data-region="northern-ireland" />

<path d="M280.3,328.0L283.1,327.7L285.3,325.6L285.2,322.6L287.3,321.0L290.7,319.0L292.2,317.0L295.3,315.8L298.4,313.3L297.6,310.1L297.4,306.0L297.8,302.4L297.7,299.7L298.3,296.8L300.5,294.5L297.6,291.1L295.6,288.1L293.3,286.8L291.6,284.9L292.4,282.0L293.2,278.8L294.1,275.8L292.7,272.8L290.3,271.7L288.4,269.0L284.8,268.7L284.2,266.0L281.6,266.0L280.2,263.7L277.3,261.0L278.6,258.4L280.4,255.8L282.8,254.3L285.4,253.8L285.3,251.3L283.8,248.0L285.9,245.4L287.1,242.3L290.1,241.8L289.9,240.1L288.1,236.3L285.1,233.4L285.5,230.3L283.4,228.9L283.9,226.3L282.6,221.6L280.3,220.3L278.0,222.0L275.6,220.3L274.8,217.6L276.5,215.3L274.7,212.8L275.7,210.2L278.3,208.5L277.4,205.8L274.7,205.0L272.5,202.7L271.4,200.0L269.4,202.0L266.9,203.3L264.7,206.5L262.7,208.8L260.2,208.5L259.6,212.3L257.3,215.1L254.9,214.2L252.2,214.6L252.9,217.1L250.3,217.3L247.9,219.7L246.9,223.0L246.4,226.1L244.4,227.9L242.9,232.0L242.0,236.5L240.8,239.0L245.2,245.6L247.2,248.7L248.4,251.1L248.8,253.7L251.0,257.1L253.8,257.4L254.3,254.6L254.9,258.4L254.2,261.5L256.1,263.4L258.6,261.9L260.1,259.4L260.6,256.7L262.2,259.5L264.8,259.3L267.1,256.6L268.7,254.2L267.7,257.1L268.5,260.5L268.1,263.4L265.9,265.7L265.7,268.3L267.1,270.4L261.8,272.6L260.9,275.7L260.6,280.0L261.8,283.3L266.0,283.8L264.0,286.0L261.9,288.6L259.8,292.4L259.5,294.9L263.6,303.6L265.6,306.0L268.4,307.4L270.7,306.4L273.3,305.7L271.5,307.4L268.9,308.6L266.1,309.1L262.5,302.2L259.7,302.2L256.9,303.1L258.4,307.0L259.8,309.7L260.2,311.3L264.6,313.7L266.2,316.0L264.9,318.1L266.8,320.2L268.0,323.0L269.4,326.0L272.8,327.9L272.8,327.9L276.4,326.7L278.7,328.3L279.8,328.8Z " data-region="england-north-west" />

<path d="M257.2,418.1L259.2,416.4L260.1,413.8L262.2,412.0L264.3,410.6L266.9,409.9L269.9,409.6L273.4,407.6L275.8,406.6L276.7,405.4L276.4,404.2L276.6,401.4L276.1,398.8L276.0,396.1L277.1,393.6L274.2,392.7L272.5,390.6L268.9,387.6L266.5,388.8L264.7,387.1L262.6,384.6L261.5,382.4L260.6,380.0L260.5,377.5L261.5,374.9L261.8,371.6L263.4,369.2L264.1,366.7L265.6,364.5L261.5,363.7L259.1,361.6L257.0,360.0L256.8,357.2L259.7,355.4L262.8,355.1L264.5,353.0L261.5,352.3L259.4,350.5L261.2,348.6L262.5,346.3L262.9,343.6L265.0,341.7L262.6,339.7L259.6,338.6L258.2,336.4L259.2,333.9L260.3,331.5L263.3,329.0L265.7,329.9L268.5,329.5L270.5,331.5L273.1,330.6L272.8,327.9L272.8,327.9L269.4,326.0L268.0,323.0L266.8,320.2L264.9,318.1L266.2,316.0L264.6,313.7L260.2,311.3L254.4,308.3L251.7,306.1L245.4,308.6L242.4,309.8L238.4,310.0L236.6,308.1L234.1,307.4L234.5,309.9L229.6,311.5L226.8,313.1L223.5,313.4L221.1,316.5L218.2,319.4L216.8,323.1L214.1,326.4L210.6,329.8L208.1,330.7L203.3,336.3L202.3,338.6L206.3,338.1L209.2,337.7L211.8,337.9L212.2,335.3L214.0,333.1L217.1,332.8L220.9,331.2L223.8,331.5L226.3,331.1L224.3,332.9L224.7,336.3L224.5,339.3L227.1,342.6L225.9,345.4L224.6,347.9L226.5,352.4L229.8,352.0L227.9,353.9L226.5,356.8L225.8,359.3L225.1,363.0L222.0,368.0L217.8,371.6L215.4,372.4L213.6,374.3L211.5,375.8L206.5,376.1L205.2,378.4L202.0,379.6L199.6,380.9L197.1,382.4L193.1,382.5L190.6,383.8L189.3,386.2L186.8,386.9L184.6,388.5L182.8,390.4L185.1,391.2L187.7,391.5L189.5,393.7L189.5,396.6L187.2,397.7L184.6,399.1L187.0,400.7L193.1,400.8L196.6,400.2L197.0,397.6L199.3,396.0L198.0,399.0L195.5,401.2L192.4,401.6L189.4,402.0L191.6,403.6L192.6,406.0L195.3,407.1L197.4,405.2L202.0,404.4L204.3,402.5L206.1,399.4L208.6,398.9L211.3,399.3L213.9,398.6L215.8,396.4L216.1,398.8L216.9,401.8L221.4,402.5L223.9,403.2L226.4,402.6L224.1,405.2L221.2,405.7L218.7,407.0L218.7,409.6L221.5,410.5L224.0,409.5L226.6,409.6L230.0,409.1L229.4,406.6L233.1,405.8L235.6,407.2L237.3,409.1L238.4,412.2L240.0,414.3L243.3,415.8L245.0,418.1L254.6,419.2Z M216.9,319.0L219.1,317.7L221.1,316.1L222.8,313.3L225.3,312.2L226.5,309.9L224.5,308.3L222.1,309.5L220.8,307.3L219.4,304.9L217.5,302.4L214.5,302.0L209.7,303.5L209.3,307.6L209.1,310.3L210.8,313.7L211.6,316.2L214.6,316.1L214.4,318.6L216.5,319.1Z M209.3,312.6L208.7,310.1L207.2,308.1L204.8,309.1L207.3,310.7L209.0,312.8Z " data-region="wales" />

<path d="M369.3,420.3L371.8,417.9L373.7,420.2L376.3,420.1L377.5,417.0L378.7,414.2L378.9,411.3L380.3,409.3L380.1,408.5L381.9,406.6L383.4,404.1L381.6,402.2L378.4,400.9L374.9,402.2L372.5,400.2L371.2,398.0L365.5,399.0L362.9,399.0L360.3,401.1L356.4,402.4L354.3,403.9L354.9,409.5L356.6,411.7L358.8,413.9L361.4,415.0L361.5,417.6L363.9,415.9L364.9,418.5L367.5,419.8L368.3,420.5Z " data-region="england-london" />

<path d="M326.9,382.8L329.5,382.3L330.9,379.5L333.7,378.3L336.7,377.0L338.6,380.1L340.1,377.7L339.6,375.2L341.4,373.1L344.3,371.6L346.8,369.7L347.5,368.3L348.9,365.3L351.1,364.2L353.2,361.8L352.3,359.4L355.7,356.6L356.7,352.0L354.8,349.4L352.0,347.8L351.2,343.9L354.3,343.7L359.2,342.8L363.5,343.1L366.5,341.8L370.2,340.8L371.5,338.6L375.0,337.6L377.5,335.4L377.4,332.6L373.5,329.6L371.1,328.2L367.8,328.5L369.4,326.2L372.6,321.2L376.6,317.1L378.8,312.9L378.0,308.3L374.7,300.7L373.5,298.3L371.6,296.6L370.0,294.2L366.0,291.9L365.8,292.1L363.3,292.9L362.1,297.7L360.1,296.2L359.0,293.6L358.0,290.0L355.0,288.1L354.0,290.7L350.9,290.4L349.0,292.3L352.1,293.2L349.7,294.0L348.1,296.5L344.5,297.0L344.3,294.2L339.9,295.5L338.3,297.6L334.0,295.8L332.1,298.9L329.2,300.3L327.5,302.3L326.7,304.7L325.7,307.3L321.8,306.1L318.5,306.0L316.0,307.0L313.5,308.0L311.3,305.4L307.8,302.6L306.2,300.7L304.4,298.1L303.3,295.4L300.5,294.5L298.3,296.8L297.7,299.7L297.8,302.4L297.4,306.0L297.6,310.1L298.4,313.3L302.6,315.0L304.6,316.9L305.7,319.8L305.8,322.6L306.7,325.0L304.5,327.3L303.6,330.6L305.6,332.7L307.9,333.8L311.1,334.0L311.7,336.4L309.8,338.8L309.6,341.3L311.7,343.0L314.9,345.3L314.6,348.8L319.2,351.2L323.6,354.3L325.6,357.2L327.6,359.7L326.1,362.9L326.5,365.5L325.2,368.7L324.0,371.4L323.4,372.6L326.5,376.2L324.1,377.4L324.9,380.1L325.8,382.9L326.2,383.1Z " data-region="england-east-midlands" />

<path d="M277.1,393.6L279.5,391.7L282.1,390.1L284.6,388.0L282.8,385.6L285.2,383.8L287.7,382.2L288.9,384.6L291.6,385.1L294.1,383.2L293.9,380.6L296.0,382.4L298.7,382.8L303.1,380.8L305.9,381.4L306.2,378.6L308.1,376.4L310.0,378.6L313.5,380.7L312.1,383.2L314.3,384.8L316.9,382.8L317.5,379.8L318.3,377.0L321.5,376.6L322.8,374.2L323.4,372.6L324.0,371.4L325.2,368.7L326.5,365.5L326.1,362.9L327.6,359.7L325.6,357.2L323.6,354.3L319.2,351.2L314.6,348.8L314.9,345.3L311.7,343.0L309.6,341.3L309.8,338.8L311.7,336.4L311.1,334.0L307.9,333.8L305.6,332.7L303.6,330.6L304.5,327.3L306.7,325.0L305.8,322.6L305.7,319.8L304.6,316.9L302.6,315.0L298.4,313.3L295.3,315.8L292.2,317.0L290.7,319.0L287.3,321.0L285.2,322.6L285.3,325.6L283.1,327.7L280.3,328.0L279.8,328.8L278.7,328.3L276.4,326.7L272.8,327.9L273.1,330.6L270.5,331.5L268.5,329.5L265.7,329.9L263.3,329.0L260.3,331.5L259.2,333.9L258.2,336.4L259.6,338.6L262.6,339.7L265.0,341.7L262.9,343.6L262.5,346.3L261.2,348.6L259.4,350.5L261.5,352.3L264.5,353.0L262.8,355.1L259.7,355.4L256.8,357.2L257.0,360.0L259.1,361.6L261.5,363.7L265.6,364.5L264.1,366.7L263.4,369.2L261.8,371.6L261.5,374.9L260.5,377.5L260.6,380.0L261.5,382.4L262.6,384.6L264.7,387.1L266.5,388.8L268.9,387.6L272.5,390.6L274.2,392.7L277.1,393.6Z " data-region="england-west-midlands" />

<path d="M332.7,461.8L333.0,459.1L335.9,457.4L335.0,454.8L327.6,452.3L324.7,454.6L320.1,456.3L317.9,459.3L320.5,458.4L327.3,462.9L328.7,463.2Z M340.6,450.8L339.2,448.5L337.6,450.6L340.6,451.2Z M318.2,455.8L319.3,453.3L322.0,452.7L326.0,451.1L323.6,446.2L321.5,444.7L325.8,446.6L327.7,448.5L331.0,450.1L333.3,451.6L333.5,449.0L335.3,451.5L337.0,448.8L339.2,447.5L341.5,448.6L341.6,451.4L345.3,453.7L346.8,451.3L354.0,449.4L360.2,449.0L364.7,447.1L368.2,447.0L375.3,449.2L378.2,449.5L380.9,450.2L384.6,450.7L387.0,447.8L389.3,445.7L397.0,443.5L401.7,439.0L405.6,439.0L408.4,439.8L409.1,437.0L410.9,431.9L412.9,430.0L415.9,429.5L417.9,427.8L422.3,425.9L423.8,422.8L423.4,418.3L422.4,415.9L424.0,413.8L424.5,411.2L412.1,412.7L407.8,414.4L400.1,414.1L398.6,411.8L393.6,413.0L395.3,409.9L397.9,409.9L391.4,407.4L388.9,408.4L386.1,410.0L385.6,410.3L385.2,410.4L383.3,409.4L380.3,409.3L378.9,411.3L378.7,414.2L377.5,417.0L376.3,420.1L373.7,420.2L371.8,417.9L369.3,420.3L368.3,420.5L367.5,419.8L364.9,418.5L363.9,415.9L361.5,417.6L361.4,415.0L358.8,413.9L356.6,411.7L354.9,409.5L354.3,403.9L353.1,402.0L352.5,399.2L351.4,396.0L348.9,395.1L347.1,392.5L346.2,389.5L348.0,391.6L350.6,392.0L351.1,388.9L348.8,387.8L346.5,386.4L347.4,383.7L348.1,380.5L347.7,377.5L350.0,375.0L347.8,372.3L346.8,369.7L344.3,371.6L341.4,373.1L339.6,375.2L340.1,377.7L338.6,380.1L336.7,377.0L333.7,378.3L330.9,379.5L329.5,382.3L326.9,382.8L326.2,383.1L325.8,382.9L324.9,380.1L324.1,377.4L326.5,376.2L323.4,372.6L322.8,374.2L321.5,376.6L318.3,377.0L317.5,379.8L316.9,382.8L314.3,384.8L312.1,383.2L313.6,385.7L312.8,388.4L311.6,390.7L310.5,395.3L311.7,397.8L311.7,400.8L312.8,403.5L313.2,407.1L315.9,411.6L316.9,415.5L317.7,417.9L319.5,419.8L318.3,422.2L317.8,425.5L314.6,426.3L312.6,428.0L314.0,431.1L315.1,433.5L315.2,436.6L315.5,439.4L315.8,442.0L312.6,441.3L310.1,440.7L306.3,439.7L303.4,440.8L306.1,444.4L308.8,444.0L307.6,446.2L309.3,449.6L309.3,452.4L311.8,452.8L314.0,454.7L316.6,455.1L318.1,455.8Z M406.2,413.3L405.1,411.0L399.8,409.3L399.2,412.1L405.3,413.7Z " data-region="england-south-east" />

</g>

<g id="IRL">

<path d="M22.3,407.4L25.0,407.0L26.6,404.9L29.5,405.3L33.4,404.0L35.8,403.2L35.9,406.2L38.4,404.3L36.8,406.6L39.2,407.2L41.8,407.4L43.5,405.4L46.3,404.8L49.8,403.9L52.4,405.2L54.8,403.7L57.0,402.2L59.4,403.3L62.0,401.6L59.9,400.1L63.6,400.2L66.5,400.3L67.9,398.1L69.8,396.0L73.3,396.2L76.0,393.9L76.8,391.4L74.6,389.7L73.0,386.9L75.5,386.0L78.5,386.3L80.4,388.2L79.0,390.3L82.1,391.6L86.2,390.7L88.6,388.2L91.4,387.1L92.3,384.2L97.1,384.3L100.3,382.6L102.3,379.7L101.7,377.2L103.9,375.8L107.7,374.4L114.5,373.9L117.2,374.0L118.9,372.2L120.1,374.4L123.1,373.8L124.8,371.6L124.3,369.0L123.6,366.3L125.1,368.7L126.6,372.5L124.9,374.8L129.4,372.2L129.0,369.6L131.2,368.1L133.3,370.1L135.9,371.0L138.0,372.5L141.2,371.4L144.1,371.3L147.3,369.2L145.6,367.3L145.5,364.8L142.6,364.9L141.8,362.5L145.0,362.3L146.3,359.5L147.7,357.3L151.1,352.8L151.8,349.3L151.4,346.8L153.3,342.0L153.9,339.0L154.8,336.3L157.1,333.6L158.1,330.4L159.7,328.3L158.2,326.2L158.2,323.5L158.6,320.7L157.5,316.9L156.8,314.1L156.3,310.5L154.6,308.5L152.8,306.2L154.7,303.6L157.5,304.7L155.8,302.8L155.7,300.3L156.4,297.8L157.7,294.8L156.5,292.1L154.0,289.5L152.4,287.1L152.2,283.7L152.4,280.7L152.1,277.3L150.0,275.5L148.0,272.8L148.3,270.1L148.8,267.6L152.9,268.5L155.5,269.7L157.3,267.5L155.3,265.9L152.0,262.5L152.0,262.5L149.4,261.7L149.1,261.7L148.5,264.2L148.5,264.2L145.9,264.3L141.9,265.0L140.7,265.0L140.2,265.6L140.0,265.5L139.7,265.3L138.6,264.0L138.3,263.8L138.6,261.1L139.6,258.1L138.3,256.6L136.0,256.9L134.1,255.1L133.2,252.6L133.1,252.5L133.1,252.5L132.3,251.9L131.7,251.5L132.2,248.7L131.7,247.6L131.1,247.4L130.6,246.0L129.1,244.7L128.6,244.2L127.5,243.6L127.5,243.6L123.7,247.1L121.4,248.1L121.1,249.6L121.1,249.6L121.3,250.4L121.9,250.8L121.6,251.6L121.7,251.7L122.5,254.2L119.9,255.1L118.9,256.8L119.0,256.9L118.3,259.4L117.5,259.9L117.7,257.6L117.6,257.5L117.6,257.4L116.9,260.3L116.7,260.3L114.3,259.8L113.1,258.8L113.5,258.4L110.5,259.4L106.9,258.4L103.9,254.8L101.3,254.6L98.8,253.9L98.4,250.4L96.5,248.8L94.4,245.2L91.8,243.8L89.8,240.8L89.0,238.9L91.6,238.1L93.0,237.1L93.5,236.3L94.2,235.3L94.2,235.3L97.4,235.3L100.0,235.0L103.5,232.0L104.9,231.6L101.9,229.6L99.6,228.5L97.8,225.9L100.7,224.0L103.1,225.6L106.6,223.9L109.4,223.7L110.7,223.9L110.9,221.0L113.4,218.1L114.4,215.3L114.5,213.1L115.4,212.5L115.8,209.7L116.1,209.6L117.0,207.7L119.9,206.8L120.3,206.2L120.4,206.1L122.5,203.3L124.5,201.0L127.6,199.1L130.7,197.9L131.4,195.3L128.6,194.3L125.8,193.3L123.7,190.1L121.5,188.9L118.3,187.3L118.6,190.1L121.6,193.2L118.9,192.7L116.0,192.8L113.4,192.5L112.6,195.5L112.3,198.1L114.2,200.9L113.9,203.7L114.0,206.7L111.7,208.0L108.1,210.9L110.1,208.1L108.4,206.0L110.9,204.2L112.3,201.5L111.0,199.3L109.5,197.2L109.7,194.7L106.7,194.1L104.2,196.0L104.0,194.4L101.5,196.2L102.3,199.2L100.0,197.7L96.8,198.3L98.7,196.4L96.3,197.5L93.1,199.3L90.1,199.6L87.4,199.2L86.2,201.8L86.6,204.5L84.2,205.6L82.0,207.0L83.2,210.2L81.3,212.0L83.5,214.2L84.6,216.9L81.1,216.7L78.6,217.0L80.5,219.4L82.2,221.2L80.1,219.7L74.6,220.4L71.3,222.3L69.1,224.1L72.4,227.6L75.4,229.1L78.1,228.9L81.0,228.2L82.4,230.3L79.9,232.2L83.0,230.2L85.3,228.5L89.8,229.0L87.8,232.7L85.9,235.2L85.3,237.7L82.1,238.2L79.5,237.8L78.6,240.4L74.0,243.1L72.1,244.9L75.6,245.3L77.4,247.8L75.1,248.8L75.3,251.6L72.8,251.2L71.5,248.9L68.6,248.4L65.5,249.0L63.2,247.6L60.2,247.0L58.2,249.4L55.9,251.5L55.8,254.1L53.4,250.8L53.7,247.9L52.1,246.0L49.7,244.7L45.3,245.2L37.2,243.8L34.7,242.5L32.7,244.1L35.4,245.7L32.5,245.8L31.4,248.6L28.8,249.0L31.2,246.5L28.8,245.8L27.1,243.9L24.8,245.7L23.5,248.0L23.6,250.9L22.3,253.8L24.2,255.7L24.3,252.8L25.1,250.4L27.4,249.1L28.4,251.4L28.6,253.9L27.3,256.9L30.1,256.4L29.4,259.2L30.7,261.5L31.4,264.2L32.8,266.7L31.2,264.6L28.6,264.2L27.8,268.1L30.2,269.3L33.7,267.7L38.5,268.1L40.2,270.2L38.6,272.4L33.3,274.8L30.6,274.6L28.0,275.2L27.5,278.0L27.4,281.8L30.1,283.8L33.9,284.4L30.2,284.3L27.5,284.2L23.9,283.9L24.9,286.4L21.6,285.7L18.6,286.4L19.3,289.1L22.5,291.0L20.6,293.0L18.0,293.0L19.7,294.9L22.3,296.5L25.0,296.7L26.3,294.4L28.0,296.4L30.2,295.1L28.5,298.0L26.4,300.1L28.9,301.1L31.6,301.3L33.1,299.2L34.8,297.2L34.8,300.0L36.6,297.6L38.0,300.2L36.0,303.8L38.1,305.9L40.6,306.9L43.0,306.0L54.2,305.8L58.9,305.9L55.8,308.0L59.0,309.0L58.4,311.7L55.7,311.5L52.1,311.7L53.8,314.2L50.8,314.4L48.6,312.4L45.8,314.3L42.3,319.3L40.6,322.0L42.7,323.9L40.6,327.1L39.6,329.8L38.2,332.1L36.9,334.4L34.3,334.6L25.6,342.3L22.2,343.6L27.9,343.8L30.2,342.1L35.3,340.5L37.9,341.8L41.0,342.4L43.6,341.8L48.7,342.7L52.7,338.4L54.1,335.6L57.0,334.2L56.4,337.2L59.3,339.1L62.6,340.4L55.9,341.2L53.5,343.0L47.7,343.6L44.8,344.8L42.0,344.8L39.0,344.4L34.1,344.4L30.8,345.2L30.4,347.9L28.1,350.1L24.0,351.8L21.0,352.0L23.8,354.3L24.0,357.7L23.0,360.0L25.0,361.5L22.3,363.0L19.7,362.5L17.6,360.7L17.3,358.1L15.4,361.3L12.0,362.0L12.6,359.5L8.4,359.8L5.9,361.7L4.6,363.9L1.9,363.8L0.9,367.0L2.6,369.0L5.2,367.8L7.7,368.8L10.4,368.8L16.5,367.9L18.8,368.9L26.0,367.9L22.8,369.6L19.6,372.0L15.8,373.5L12.4,374.0L9.1,375.4L7.1,376.9L7.5,379.5L3.5,381.4L2.3,383.6L3.6,386.3L6.4,385.4L9.2,384.6L9.3,387.5L11.1,389.7L13.6,389.0L17.7,387.4L20.2,386.4L23.4,386.5L28.5,384.3L31.1,384.1L27.7,385.9L25.1,386.3L23.0,388.3L20.8,390.2L17.5,390.6L15.6,392.4L14.4,394.7L11.7,395.2L10.0,397.7L12.5,398.5L17.2,397.8L19.7,396.0L24.3,395.7L27.9,395.2L30.4,393.7L31.3,390.8L32.9,393.0L35.3,393.5L33.5,395.9L30.8,396.8L24.6,399.6L22.5,401.0L20.2,402.2L29.6,399.2L26.7,402.6L23.9,403.6L21.9,405.2L20.8,407.5L21.2,408.3Z M1.9,381.4L5.0,380.6L1.8,380.2L1.2,381.5Z M34.1,314.2L32.4,311.6L29.7,310.8L33.5,314.3Z M34.2,306.2L33.9,303.4L32.4,305.7L33.0,306.5Z M135.5,272.6L133.2,271.0L135.5,272.6L135.9,272.5Z M122.8,262.3L120.3,261.5L122.8,262.2L122.9,262.2Z M27.6,267.6L28.0,265.0L27.4,262.5L23.9,259.8L21.4,260.9L18.5,261.5L22.9,262.7L23.6,265.5L25.7,267.0L26.8,268.2Z M80.4,208.9L79.0,206.5L77.7,208.7L78.9,209.2Z M106.5,203.2L106.5,200.0L104.5,197.9L104.3,196.5L105.7,198.4L107.7,200.4Z " />

</g>

</svg>

